<svg width="26" height="26" viewBox="0 0 26 26" fill="none" xmlns="http://www.w3.org/2000/svg"><g clip-path="url(#clip0_28627_69713)"><path d="M1 9.11281H4.48449C5.75573 9.11281 6.7023 9.37604 7.32421 9.90251C7.94611 10.429 8.25706 11.1393 8.25706 12.0334C8.25706 12.9359 7.94611 13.6504 7.32421 14.1769C6.7023 14.7033 5.75573 14.9666 4.48449 14.9666H2.96174V17.8872H1V9.11281ZM4.48449 13.4624C5.13383 13.4624 5.59568 13.3454 5.87005 13.1114C6.15356 12.8691 6.29532 12.5097 6.29532 12.0334C6.29532 11.5571 6.15356 11.2019 5.87005 10.968C5.59568 10.7256 5.13383 10.6045 4.48449 10.6045H2.96174V13.4624H4.48449Z" fill="#F47A55"></path><path d="M10.2858 16.4958C10.8711 16.4958 11.2827 16.4415 11.5204 16.3329C11.7674 16.2242 11.9274 16.0822 12.0006 15.9067L12.0966 15.6936L8.68072 9.11281H10.7796L13.002 13.7131L14.9501 9.11281H16.9941L13.9349 15.9067C13.752 16.3245 13.5599 16.6713 13.3587 16.9471C13.1667 17.2145 12.9334 17.4276 12.6591 17.5864C12.3847 17.7451 12.0555 17.8538 11.6713 17.9123C11.2964 17.9708 10.8345 18 10.2858 18V16.4958Z" fill="#F47A55"></path><path d="M21.3509 18C20.1711 18 19.2383 17.6616 18.5523 16.9847C17.8756 16.3078 17.5372 15.2716 17.5372 13.876V12.8733C17.5372 11.6031 17.8756 10.6421 18.5523 9.99025C19.2383 9.33008 20.1711 9 21.3509 9C21.9179 9 22.4164 9.06685 22.8462 9.20056C23.2761 9.33426 23.6419 9.52646 23.9437 9.77716C24.2455 10.0279 24.4833 10.3329 24.657 10.6922C24.8308 11.0432 24.9451 11.4401 25 11.883H23.0383C22.956 11.4568 22.7868 11.1267 22.5307 10.8928C22.2746 10.6588 21.8813 10.5418 21.3509 10.5418C20.7747 10.5418 20.322 10.7214 19.9928 11.0808C19.6635 11.4318 19.4989 12.0292 19.4989 12.8733V13.876C19.4989 14.3607 19.5401 14.7702 19.6224 15.1045C19.7138 15.4304 19.8373 15.6936 19.9928 15.8942C20.1482 16.0947 20.3403 16.2409 20.5689 16.3329C20.7976 16.4164 21.0582 16.4582 21.3509 16.4582C21.8905 16.4582 22.2792 16.3412 22.517 16.1072C22.7639 15.8649 22.9377 15.5139 23.0383 15.0543H25C24.8811 15.9903 24.5244 16.7173 23.93 17.2354C23.3355 17.7451 22.4758 18 21.3509 18Z" fill="#F47A55"></path><path d="M25 20H1V22H25V20Z" fill="#F47A55"></path><path d="M25 5H1V7H25V5Z" fill="#F47A55"></path></g><defs><clipPath id="clip0_28627_69713"><rect width="26" height="26" fill="white"></rect></clipPath></defs></svg>
 